<mxfile host="app.diagrams.net" modified="2020-12-08T10:33:20.570Z" agent="5.0 (Windows NT 10.0; WOW64) AppleWebKit/537.36 (KHTML, like Gecko) Chrome/87.0.4280.88 Safari/537.36" etag="fGe0FzGGes3bcWcPwbh2" version="13.11.0" type="github">
  <diagram id="3H3_Qlsaqcw9E4mh5J3B" name="Page-1">
    <mxGraphModel dx="1101" dy="548" grid="0" gridSize="10" guides="1" tooltips="1" connect="1" arrows="1" fold="1" page="1" pageScale="1" pageWidth="1200" pageHeight="1600" math="0" shadow="1">
      <root>
        <mxCell id="0" />
        <mxCell id="1" parent="0" />
        <mxCell id="ItB4P-0cPvp-1sTLBnrw-3" value="&lt;span style=&quot;font-size: 17px ; color: black ; font-weight: bold&quot;&gt;&lt;br&gt;Complete&lt;br&gt;&amp;nbsp;Survey &lt;br style=&quot;font-size: 17px&quot;&gt;&lt;br&gt;&lt;/span&gt;" style="ellipse;html=1;shape=endState;perimeterSpacing=0;strokeWidth=5;fillColor=#B2C9AB;strokeColor=#788AA3;fontFamily=Helvetica;fontSize=17;fontColor=#46495D;" vertex="1" parent="1">
          <mxGeometry x="325" y="174" width="139" height="93" as="geometry" />
        </mxCell>
        <mxCell id="ItB4P-0cPvp-1sTLBnrw-4" value="&lt;span style=&quot;font-size: 17px ; color: black ; font-weight: bold&quot;&gt;Check &lt;br&gt;Reports&lt;br&gt;&lt;/span&gt;" style="ellipse;html=1;shape=endState;perimeterSpacing=0;strokeWidth=5;fillColor=#B2C9AB;strokeColor=#788AA3;fontFamily=Helvetica;fontSize=17;fontColor=#46495D;" vertex="1" parent="1">
          <mxGeometry x="739" y="174" width="139" height="93" as="geometry" />
        </mxCell>
        <mxCell id="ItB4P-0cPvp-1sTLBnrw-5" value="&lt;span style=&quot;font-size: 17px ; color: black ; font-weight: bold&quot;&gt;&lt;br&gt;Fill Weekly&lt;br&gt;Plan&amp;nbsp;&lt;br style=&quot;font-size: 17px&quot;&gt;&lt;br&gt;&lt;/span&gt;" style="ellipse;html=1;shape=endState;perimeterSpacing=0;strokeWidth=5;fillColor=#B2C9AB;strokeColor=#788AA3;fontFamily=Helvetica;fontSize=17;fontColor=#46495D;" vertex="1" parent="1">
          <mxGeometry x="541" y="174" width="139" height="93" as="geometry" />
        </mxCell>
        <mxCell id="ItB4P-0cPvp-1sTLBnrw-7" value="&lt;font style=&quot;font-size: 20px&quot;&gt;&lt;span style=&quot;font-style: normal&quot;&gt;Mini Survey Tool&lt;/span&gt;&lt;/font&gt;" style="verticalLabelPosition=middle;verticalAlign=middle;html=1;shape=mxgraph.basic.rect;fillColor2=none;strokeWidth=2;size=20;indent=5;labelPosition=center;align=center;fontSize=16;fontStyle=3;fontFamily=Helvetica;strokeColor=#0e8088;gradientDirection=south;fillColor=#00BABA;" vertex="1" parent="1">
          <mxGeometry x="2" y="4" width="1195" height="107" as="geometry" />
        </mxCell>
        <mxCell id="ItB4P-0cPvp-1sTLBnrw-10" value="" style="verticalLabelPosition=middle;verticalAlign=middle;html=1;shape=mxgraph.basic.rect;fillColor2=none;strokeWidth=1;size=20;indent=5;fontFamily=Helvetica;fontSize=16;fillColor=#B2C9AB;strokeColor=#788AA3;fontColor=#46495D;labelPosition=center;align=center;" vertex="1" parent="1">
          <mxGeometry x="339" y="295" width="534" height="691" as="geometry" />
        </mxCell>
        <mxCell id="ItB4P-0cPvp-1sTLBnrw-13" value="                                                                             Date : dd/mm/yyyy&#xa;&#xa;   Program : CST/STP&#xa;&#xa;   Team      : Structures/Design Engineering&#xa;&#xa;   Name     : Alka Mishra" style="verticalLabelPosition=middle;verticalAlign=middle;shape=mxgraph.basic.rect;fillColor2=none;strokeWidth=2;size=20;indent=5;labelPosition=center;align=left;fontSize=16;fontStyle=0;fontFamily=Helvetica;strokeColor=#0e8088;gradientDirection=south;fillColor=#00BABA;spacing=3;spacingTop=0;" vertex="1" parent="1">
          <mxGeometry x="358" y="313" width="496" height="157" as="geometry" />
        </mxCell>
        <mxCell id="ItB4P-0cPvp-1sTLBnrw-14" value="&lt;b&gt;&lt;font style=&quot;font-size: 20px&quot;&gt;Aissigned Task&lt;/font&gt;&lt;/b&gt;" style="text;html=1;strokeColor=none;align=center;verticalAlign=middle;whiteSpace=wrap;rounded=0;sketch=0;fillColor=#4481DB;" vertex="1" parent="1">
          <mxGeometry x="358" y="509" width="494" height="34" as="geometry" />
        </mxCell>
        <mxCell id="ItB4P-0cPvp-1sTLBnrw-15" value="" style="shape=image;verticalLabelPosition=bottom;labelBackgroundColor=#ffffff;verticalAlign=top;aspect=fixed;imageAspect=0;image=data:image/png,iVBORw0KGgoAAAANSUhEUgAAAgUAAADUCAYAAAAMYVCuAAAgAElEQVR4Ae2df8htWXnfBzKtonXumPFXx2irWAx1bGtUYh1x6lgzaUgyQZNoaspcJY2J/0wjaa9Q0itNUoopDmmYP1ox5AcoGMQ/BmMMBINTAqVYMSSlbTBtKRIaEEMrtekPTvmc5Pvy3GfWPmefvZ+9z9rnfl84d+29fu21v+tZz/PZa5/3vXfsdrvdk08+uXv88cd3n/3sZ/0p0uCJJ57YPfbYYztS61pnV2j6sY99zJoW2Sm2+eEPf3j/sZ3W2eknPvGJ/fq3pnWafuYzn+nGp95xxx27+NnyPBP7P/WpT4EC+587+PeBBx645Qbjzfr41sm3HtbDNmAbsA3YBi7JBl72spf9KRLsdnsouHHjxu4Zz37B7nv+6a/7U6TB/X/3n+1Bi9S61tkVC/Hlb/471rTITrHN57z0r+w/ttM6O/2W7/vx/fq3pnWaftuNX7ZPLVz3sk1i/zve8Y5boeDmzZu7Z97zwt07P/y7/hRp8Dd//Bf2BkxqXevsCih45Xe915oW2Sm2+fyXv3b/sZ3W2elff9dP79e/Na3TlCDG+rdPrdMU+yT2X79+3VCw9GI1FNQarubLUFCvq6GgXlNDQb2mhoJ6TQ0FhU9XClJDqaFgGQM2FNTraiio19RQUK+poaBeU0OBoWDz2+6GgnrHYCio19RQUK+poaBeU0OBocBQsKINDO0i9ZZvKKh3toaCek0NBfWaGgpWDAh+fbCMAXunoF5XQ0G9poaCek0NBfWaGgoMBd4pWNEGetsRGBqPoaDe2RoK6jU1FNRraihYMSB4p2AZA/ZOQb2uhoJ6TQ0F9ZoaCuo1NRQYCrxTsKINDD2Z95bfExT8l698ff/70p//z/9907ZqKKgPYIaCek0NBSsGBO8ULGPAFTsFv/Rbf7Aj+Pzx//l/+wD0P/7X/9393n/7n7tHP/Yfuw1EP/cb/3U/Vsb8j5/4T6XjrIACaXn1F1B2u91Xvva/d7/+u185aax/8Ed/bChY0U/1BqiHxmMoWMan+o8XrbTgDAXLGPBcKCBIDf30/HTagoKYd8iZHiurgIIhTcn/V7/3R6PBwFCwzLo5ZgNbKDcULGMbhgJDwWgH3aOjmAMFPGHrh6dYgir3SP7vfPlru56hoDUX7Hjop1U+Nq8SChiTNEVjfgj0Y8diKFjG8Y/Vv+d6hoJlbMNQYCgY7aB7dBBzoICgr59jrwqoq6BGm7wVrnffn/y3f7h/FaF+eQ0hyNCWOnV1PZ6a+aF/QER1CIZACuW8zuAngot2BchnXuK97Cv/6T9T5mwJKIhjjFDAfUg73SMaatwtKDjWBhBRO2nBNWinftFLupLGazI3zJvmgnLqq+2U1N8pqA9ghoJ6TbFtQ4GhYJazm+IgK9vMgQIFjhikWmMjWA/9aCtcfbXqKbjEMoIO1xoK5tRttSNA0S7vCrT6oX3rfo7lLQEFgJGgSvdOXuseuXcFaemqoHxKm6g3x9Ku9cooaqVx5vbYwTHthsoNBfUB7NxQgO/Jn6H531K+ocBQMNnR9WDoS0MBQUg/AgCeJPV0q0Cj4EVw0Za58mivtmpHGfrFYK46MY8AyvUo0w/tMhQM5U2Zo0oo0JiVEnC1SyLYQhPl6d7JY+zSUFAwpg3aABXqk2P90Ge+BvU1H6rLvDL3UdcIDqfqaii4TCj486+4/8p/cow/eviffOYq71Q76aG+ocBQsGkDXhoKWsE3BgqCDec5eJGn4KOA02o3pg7t+OiHMbXG1cpT21PSJaEgbuFLM91XTIEHxqw6ggKdx7o6VhuCOTBFYM8/9MkYtENBSl0BgOYjt9O5QOMUPalrKLh8KAAG8Ed/6W+8Y2+7ggTy+HzbjV/e53OcYeLPPfdF+zJS1X/V2963zzvV1ubWNxQYCs5ieHMNV+1ZQK/8rvdOugeCAT8EhiFnPxRoc76ClYIX41OAoUzjze3G1FFbBSb6yP1Qp5WntqeklVDAmNC2pbU0033FVJqpjnTVeayrY7VpwYDqSAcggF2HCAfkaT5UP6aH7ET9DqWGgsuHAuaeoK6AH3cMyFPgBxrwW5QLJACAN/zwz1zlD9nRGvmGAkPBVcBaw+CqrzEHCmIQ5SlTT7EKDgQI8vSj7X2CnF4D6OlUwUrBi/tUgFGwIi9ec2wdaaZx0EfuJ/fNGPX0q/Zj02oo4LqMRwFYGgkU4uuDPMas65g20knzGb9DQP9cnw9j4lwQgaaqG18f5DFNOTcU3H5QQKDXUz+poGAIBNhJUH0AYYqdVbQxFBgKzmZ8FQY8Bwq4voKMAklMFbwUmGKZjoe+EEfftOdnLSgAAvLPFI2XgIKoh564I9jkcWftdT6mjeAj98l5HEcuR78IL7k8zuOpuhoKLh8KFOzZCVCAV3CPOwXYjs6VRnsiD7+m1xCxbI3ji4IC6J7PGsKdeg3/8aJ6p8AczIUC+uDpMAZ+bAhY0JMkKUGJfP3wdEuAkh1o50DBi3x9OTAGEwU1AtdQnbg7of5J9UP5UB2uqaAYrxv7OXZcAQUaQ9QoBlztulAu7XR/pCpXWdT1WBu0YQeHH8bBXOqce6dc/VKHMsEd5cABbXQP+452u32bY9oNlRsK6td/D799QADXnCuYAwcZCvBT2imgvl4VkK/vDpDqewf0FfvWNdZIu4cCOdFjDk71WMxrCHfqNXqFAul2SF8cMj/RMZ96/0vVr4CCpca21X4roGCr977UuA0FlwkF+J/4ifYjSKAcIIhQQD21AyLUTnmkMV/la6SlUKD3cSLrnE65oTFBi36BAX6oz3l8qtM4VDZlHARNfqa+pz0XFBybE+krmMrnaGUoqHdoU2xwrTaGgvr5roYC+TRS1vhattHTdc69UzBXCyDhXLsBh8ZeCgXxQgrScw1WQerQkyzX5Se+OtCi0ZgECVPBYKtQoPsnHTMn0luQQDtDQX2QiPPS27GhoH6+K6EA3xb9YTzuzZYY21Lj2zIU6PWBvnPQ07ytDgUKOgraMfgoaFGmfNWXYamOyhFTdeL2tvqX2Dmw5SdotY19qQ8BRTxXv2PTc+0UxPFJuwhqul/0zZpwv+Rl7eiT+vFn6g5KHN+UY7bZpv5K4pTr3Q5tDAX9QoHWKOs226LWqdal1iTnsYw+5NPkVynnWOuacl2L9rqe/EW8hvLiNciTv4l11T959J/v4ZTzLUPBKfe5dt1VoQBDwdh0kzIa8qNhUU5ZzMeYVIdj9aG6GJkWAXn6UT0ZLCnGGPuQodJe18hGG+uoz1PSLUAB96P7R3/dX9SOvKwFcxrnVe3WSA0F9QHMUFCvadVOgXxmXltat6Rao1qT+DL5O61d6inoc6w1zjGf2IZ+1D76RfL4qD59cG3qy3+oDvmqF/10vo9Tzg0F9XaK/qtCQZ5wGSLGKQOVIauuDAnj4ieXU48fytVGeeQrb18pgYPKtNC4Vryeykl1/akGfSlQwP1nvTWPaBc1W+PYUFDvGAwF9ZouDQVag1pz8Zz1yjll8nUcy9fhe2N9rXG1wffhd1VfvpQ05mv9U1/+OB6rX9pxTY11amooqLdT5mJ1KMBI8o8MRAar8mi4ystQIJhQHzIw1Y9pDOj0k38wahm+jFr9adyxD5WNSS8NCrJ2nMspjNGjqo6hoN4xGArqNa2CAgXv7IeUr3UVz1mbCvDysdSTr8N3xvoK3mqD72sFf11L/Wj9U1/+Mx6rPnn8MBblTUkNBfV2yjysCgUyPBmPznNAVz6pDA5DkkFHY5KB5UWyt7qwUxCNTv2ojc65VrxebDN0nVjn0PGlQQF6HLrftcoMBfWOwVBQr2kVFChgx/XHsR6O5FvJU50qKNC18ctxfctntq4dx0G5fD350Y/H/sYeGwrq7RTtV4WCGHy5OIbBD4bCR8YmI8tQQBv9UEdGKuOPxqR6MU/Huq6gQLsG9Klr5z7z2NXX2HQrUNDSlHngR/OT9RurwRL1DAX1jsFQUK9pFRSwhrRG5eMUaOWjlK/1Fteu6lAmXyffS73Yf1zv2qGlbvyJPpr+aI9/kP+M9Rm3fC19yP9qnKemW4aCsb+OqD+VvObfLFgVCpj0+KPgIqOOBiOjkuHqXEZGXQUrtY9GpevEPB3nRaVxcK18vVYbLRCVjUm3AgXcixwHGqKtdJaToE6cK+pN0WSMbsfqGArqA5ihoF7TSig4tiZul/I5UECQxXfET/7jQkvqeFtCwZKCqm8FJp33nPYABT3rM3Vsa0KB/myxgJOUP4XLn8yNfyZ36r300u4cUIB++lPE6IqmevLsRZc54zAU1INWBRTo/xfQnyXWnxyeM9dbb7vYTsHSwuhpn6fapa9V0b+hoN4pMC9rQoF2TCIUxONTbVF/f19/57/Czir6WBsKAILWj3YHuadetRqrt6Ggfv0vDQU8zWsnQX95UDsM+u+PKadM2/yc6w8Sqa76iDsRHOucvjiOfxZZ/weC+uVc/eVrywZjvq6pslPSzULBKTfZQ11DQb1TYF4x/rX+eJGgIAar/J/rnLJjoNdW8bVMD7a6NhQo4JPqP6HitRXn0qNXrTS+Y6mhoH79V0CBgiepgjlzSYDOIECAVmBWQFfQJiDTLgZ76sou1I76uZ6Cua4vQKCe+o9QoGtTn3FTxodjrqNrqT+NYWxqKPB/nXxluGONpqd6LIRzQoG00Na3Ahk7WRzH/2kv/m98rSdjwQGBkV0HteU1mcp0vSXTtaFAAR99BAXx/g5plaEsakwfzAE/vIqI35Uhv3WteN3KY0NBn1CgYI4fEQQw75znD3UVcNUuBmba6WlftkMAj/0cggL6Vh8K/C0o0LUFAoxBx4aClQK6JnhO6p2CeqfAfLDgeoAC7SIQyBmXzlsBTa++cpleIwgwcvnvfPlrqwDc2lAQXx+gH/eJRlpvWQfO0Yo6AqdcRzs2Ao5WPcp0jaVTQ0H9+q/YKVCAjcEXW8CvqCzaxilQQHv6ob3aLQUFGrMAJAJOHP+YY+8UrAQWhoJ6p6CF0BMUEJwYFwGLLXAFN55K9aMv0ClgxV0ABUh2B9RWvxEj4BizsOfUWRsKGCta5cAddWlpBTzwE5/6BWPk0a/aAVrSXe1oK43n6DWmraGgfv1XQoGCtkAgP/FrjnO9QzsFEQpUbykoENRonHNSQ4GhYLWnpTmGOtS2t50C/WomEECAaj31KzgpYMXgp6AmgMjpGlve54AC5pd7Aw70W0Xc+yGtpF/WiHN0p0/ViRq3AG3IvqryDQV9QwHznEFAT91K2aI/BQpUV+15JbAUFOj1ga5FqmudasOGAkOBoWCkDShgE2jyQlMg0xNqfH+dg9ahQKdr5Dac8yR9yVAgTblH6alg3gruymtppTlSHfXDNdgd0I/mQtdeKjUU9AUFS83zufoFaPQ9BMYQdylOHZOhYGRAOFXYXN+vD+qdAhpDxOd8fZC/6KYgo2Ck7wm0ApHq6LsC1OFJmR+C4lpb29lW194p4F65bwEPGupVAvmMr6WVwCu+Psj3onbx9YHaobOumdtVnxsK6tf/nNcH1fN77v5aOwXkTRmXocBQMMlwphjbEm3OAQV6ysypgjv3SaAa+hE4xOBEXZ5mCVIKiLk9AW4JDXOfa0PB0P0SyBW0W1qh49CPdgYEBa169JnvfalzQ4GhYCnbqu7XUGAoWM0xVhsv/a0JBTz15x+ecgEABXrdI8EsggHHOldddgIUtAiM+sY8+QSsHCxpr/6XTNeGAvSQNuiLpty/gIB7HdIqt9X8aIdG+gJsAgt05Tz2v6Se9G0oMBQsbWNV/RsKDAWrBJoqg839rAkF+dqXer42FCypo6BAOwdLXutQ34YCQ8Eh++ipzFBgKDAUrGQDPS38Q2MxFNQHMENBvab+TkG9pvgFQ8FKAcFfNFzGgL1TUK/rJUGBXkt4p6DeTg6B5RplhoJl5tRQYCjwTsFKNrCGo6y4xiVBQYUeFX14p6A+gBkK6jXF1g0FKwUE7xQsY8DeKajX1VBQr6mhoF5TQ0G9poaClYAAoQ0FyxiwoaBeV0NBvaaGgnpNDQX1mhoKDAWbfnWAARsK6h2DoaBeU0NBvaaGgnpNDQWGAkPBijbAgtvCx1BQP0+GgnpNDQX1mhoKVnTSfn2wjAF7p6BeV0NBvaaGgnpNDQX1mg5CwcMPP7z7hj/ztJ2cg9PXztbi2S/65v1WN6n1nK+nNAQK+Laszp3O1/bPPuNZOz7Wcr6W0vCuF7xkv/517nS+ts956V+1T335fB2zLRL7X/3qV+uPg+7u4Ojtb3/77hnPfObu4e/92/4UaXD/G9+8N2BS61pnV0DBN//lV1rTIjvFNp/z3OfvP7bTOjt91Wtet1//1rRO07f8rYftUwvXvWyT2P/617/+Vii4efPm7t5vevHut3//q/4UafCRjz6xN2BS61pnV0DBjz56w5oW2Sm2+drXvWH/sZ3W2elPfvDx/fq3pnWa/trnvmifWrjuZZvE/uvXrxsKJMhSqaGgzhnEOTIU1OtqKKjX1FBQr6mhoF5TfKuhYAHSikFLx4aCZQzYUFCvq6GgXlNDQb2mhoJ6TQ0FKwEBQhsKljFgQ0G9roaCek0NBfWaGgrqNTUUGAo2/y7eUFDvGAwF9ZoaCuo1NRTUa2ooMBQYCla0ARbcFj6Ggvp5MhTUa2ooqNfUULCik/brg2UM2DsF9boaCuo1NRTUa2ooqNfUUGAo2MST66Gna0NBvWMwFNRraiio19RQUK+pocBQYChY0QYOwU1PZYaCemdrKKjX1FBQr+lFQMGLXvwnfz70V3/zC10HOL8+WMaAvVNQr6uhoF7TKVCAbcfP97/z3bN83Ad/9iM7/OWSAPr6N75592M3PrDoNTR+Q0G9nW4aCjDwuGAMBcsYiBZgr6mhoH7ep0ABwSCuRx3PDWTH7O4XP/7p/XWXvs6xcRwrnwoF3J/6RtM5AddQUL9WNDeXlG7yjxcBAFogggNDwVMNHo3uunb3lVO5JMPVvXCP/jPHT5176TMlnQIFPIHmp1CtU+YoBrcpYxpqcztBAUAAfEkLztFWH+WTkiffyLzkunmuaKP5Ujv6iNeLdXTNWE6fyiedAzDxXoaOvVNQu+6l8yahQIMnlQEbCp5qIFqgUa9LO+YeDQVPnfs581wFBRqDgoXOb8e0YqcgQgF+L+6OEJzjOesiB37a5Lw4F4KCGOjph3bUU7nOyaO/eF3aLg0DGrOhoHbdS1dDwUpfNKv6TgFP/ixU0s99/ktXTw2a0JhSj0/Mu7Rj7s9QUOscqqFAT/NrBYsebXwuFLQCcrzPCAzksy7y7sxYKIgPWAR8zVu+BtfJfRoKatdinOO1jg0FG4ICFqACPWkk9pbBqG6r7FLyuEdDQa0jqoYCbI15ik+gsj/tIshWWzZNMFI5aQx2CpYKXOo3r5XYXnUYDx/1oTq5L9Wfk06FAo2JNGvD2GN51Jf8qBNjp/2YnYIMBdoJQBcdSwsBn84ZwxL6qf+Yeqegdt1LW0PBhqDg27/zrXsn8EPvfd+gk9XEksphxLxLO+YeDQW1zmEJKCAY5YDE3MVApgATgwrH1FOgIo39KKDHNgKCGBTztVgHMahqXahtDsAqn5pOhYJ4D/HaBOeoHfcfz7nf3LYCCuI1GE/uk/I4F3HM1ceGgtp1r/kxFGwECuT8cIi8NmDRR2epCY2p6sS8SzvmHnuAAualOpBkh7vW3C0BBQSLGMwJasxdvqecz3lsl+trXcRAxLVy8Mr90g91WmPgerl9vu6p50tAAfekceQxc18ZCjhv3a/6kJakyuMauo7Ko51z3ah9rK8+lkq3AgVax2hfbVdLaGso2AgU/MRPfWi/oNklwBC0axAXZDYQjFBO4PGf//juFa981f6cPNr/yqeevFr8uS1l1NF3GNQmOoTc5hznjOvcUHDM2U7VBQdyaH6n9nus3RJQQPDgo2vnIKZ87pc5VWDC3jiPbVWXVIEq6oRu2fkSrOgntqVOq9+hscW2px5XQwHX53704f7iPZOfoYA23Btlsa7uRVpKe/JzkJet67pRd+rH8qV9Re9QgA+V3tKrpbv07yU1FGwECmRcCuTHnCUGJkOUQ5SzU6AnVX/RINU37dVG1ycv1j33MeOZCgXxPuknOzg5Scr4oGPrfmmXy1j8tGk5ZvVHeshJUC4HncfKeRzL2LHGNkPHS0BBvtdoT1EPHeu+GWO+96ip7jvOneqrnuq05ohxZB3Ia+XneqecT4GCU/q/Hev2DgXYJHaEPcofHFrvvczhJqFAi1wOJKbROfQiMuOY89sHBG7uMTqq+AqhFdi5ZtSFnQbpQVvtGsQ+KUdbQUNsQxnXYfdA/fSQco9ToYC2ugcFEu5feZRHe8rnqoeGCkCk1Iup6pESmLiW8ob6lCOJ9XQ8Z6zq41BaDQXSIt43mk1xkOjFR/MkXxDnCY1VT2kGAu6f62f7J5+8Vv4hzY6VGQrq33/3DgXRJgwFKz19R9F7P54DBfpioV4d6F71CqHl8KgjhxidsdrKmVInQoVeU0xx2Op7zZTxT4WCPE76UnBHsxwYRP6xHfVzPZXH/pSXU+auNX/o35o3tY99jx2r2h5Lq6EAfRhvvC73nPNi+dAx9xrvXXYcoYDyQ9qpb0NBfaCWtmukhoJl5m+TOwVrGFz1NeZAgZ7cY/BmfHxPAAdIeWu8lPFplZEnZx0dqIg2Otmh9j3kc38VUJADPucZjBSQ4n0PBXXqMDZBRmwTj7lG1lqBjjTW1XEuHztWtT+WVkKBbDDfi+6hpXHMo31sm2FC/UQNdc2cxjpowHVaQEdeK/+YbofKvVNQH8AMBfWaYsOGgpV2NaZCgQL/kJMSMMTALuckp6jznOIUqROdpfKOBbPc17nOGf9UKOAepRFpvIdWoFX9WI92Q1odKqOPFmSQ37p2vCZzFHcXWvVbY419HDqeAgWym6gnx9G2WtfM9ekn1tN9xHoRElpQQJuhfqJu1GmtK0PBMsEmzmvFsaFgmXkyFHQOBXpFgKPCieWPoKD1rl+OdGgB0ld23MobCnRDfZ0rn/FPhYI45hxcWoE2B3HOW0FF/TK2IR11vVY5fbYgj34ZV77mmLFqTGPSKVAwpt816hzSFdvO2q0xJq7hnYL6AGYoqNcUWzUUdAwF8cuECvCHUhxidHKqG/PiMQ6SOuxGKF9QcOwJT/XPnTL+CijgPuKrgFbAz8EXrQ7pxNhaQV+BqxX4qU+7lq5cq1U2Zqyt/obytgwFaDGkO/bOnA3d95L5hoL6AGYoqNeUNWAo6BgK9KW/Y0832i3Ivy2Ac+RzKPhQHmFCX2o8l/M81TEz/ilQQPDN90hfCvKtwB21VHnULo+d+hkKFPRzvtpGMFEeKflDdqCxxHmOY439jDneMhRI3zy3Aqqo0RgtquoYCuoDmKGgXlPs3VDQMRTo1wZzsM+OSoE8Bw0Cgz6xj/gridl5KsDQLrbhmpQRnGifx3Cuc8Y5BQoYL/cufUgFBLoXBRjVieUcZ+1ol9uorSAgX1PlggvOVVfjiHOi+qTx+vm6cazqZ2y6ZSjgHof0ksZjdaisZyioD2CGgnpNsXlDQadQwG8aKAAcc2axbvwNBdoDFoILbZ9qZ4G01bcgg/Zqoz7Ii9eodJxT+mI8U6FgyvXUhoBc/dRJYM9gp+utmW4dCtbUauy1eoSCIbAde0/nrtc7FKAv/mno05MfjXNpKOgUCmRQrS8QxgnUsZ5A4xMixqinSfIJOOQBAzzxt4BA/fE9A/WpNoylOhDqelNTxrY2FKAb15065qF2zEmcv6F6S+cbCuqfwAwF9ZoaCuo1xbcYCjqFgqUd/6X0fw4ouBTthu7DUFDvbA0F9Zr2DgVD66v3fEOBoaD8iXdNozcU1DtbQ0G9pqdCgXaj2JnDxrXjx9rSjl/Op0z1KeMTdwPVp8rYlVK/7FLxiWuXsh52ruKY4rGhoN5O0ddQYCi4xRHERbeFYxzc2q8PtqDLnDEaCuqd7VQoUNDWfHIeg3cM3HwnJdanXjwHJhTkBQgq1xdVdR2VR6hQWS+poaDeTplbQ4GhwFCwkg304kyPjcNQUO9sp0JBDMqtQM3OwNCXU2NZDvrYQNwp4Jx+aNMqO2Yz5yg3FNTbKfNoKFgpIEz9M8fnWGxbuqZ3Cuodg6GgXtNKKND2v9IIBewOKJ9UZa3fbMlQEM8jIPTqDwwF9XZqKFgJCBDaULCMAeP4/PqgVltDQa2erP9KKIi7BzFgE9QFAeSfulOgnYjWrkK8Ti/HhoJ6O2VuvVOwEhgYCpYxYENBva6GgnpNK6AAh813AOJ3CmKAjk/6qhshgbVCHcoU+PWdAvVDfT5D11C9HlJDQb2dMq+GAkOBv1Owkg304EjHjMFQUO9sq6CA+SNoE+D1iQE8lpHPueZcIEA78tlJyFAANFBOXbXrNTUU1Nspc20oWCkgeKdgGQPGgfn1Qa22hoJaPXG0p0LBuQIxoMCaOtf1T7muoaDeTtHfUGAo2IQDGHIWhoJ6x2AoqNd0K1DA7kLceRhadz3kGwrq7dRQsBIQILR3CpYxYENBva6GgnpNtwIFrCf9WmIPgf/QGAwF9XZqKDAUbHqXAAM2FNQ7BkNBvaZbgYJDQbi3MkNBvZ0aCgwFhoIVbaA3pzo0HkNBvbM1FNRraiio19RQsGJA8OuDZQzYOwX1uhoK6jU1FNRraiio19RQYCjwTsGKNjD0ZN5bvqGg3tkaCuo1NRTUa2ooWDEgeKdgGQP2TkG9roaCek0NBfWaGgrqNR2EgkceeWT3rLuu7X//m98B92e+Bt/9th/YfymO1HrO11MaAgWv+db7rWnhOuX3lPlIY6fz7fVNb/mOqy/FWs/5eqLhD77rR+xTC9e97JLY/+CDD+70cwcHDz300O7OO+/cvejFf8GfIg2e97zn7w2Y1LrW2RVQcO3aNWtaZKfY5tOe/vT9x3ZaZ6ffeM89+/VvTes0vQIUwp0AABv8SURBVPfeF9qnFq572Sax/7777hMT7PZQcPPmzb2T/cOvfn3nT40Gn3ziM3sDJrWmNZqiI1Dw92/8Q2tauFbvf8Mbd3xsp3V2+s8f/5d7W7WmdZp+/ov/3j61cN3LNoGD69evGwokyFKpoaDOGcQ5MhTU62ooqNfUUFCvqaGgXlN8q6FgAdKKQUvHhoJlDNhQUK+roaBeU0NBvaaGgnpNDQUrAQFCGwqWMWBDQb2uhoJ6TQ0F9ZoaCuo1NRQYCjb/3thQUO8YDAX1mhoK6jU1FNRraigwFBgKVrQBFtwWPoaC+nkyFNRraiio19RQsKKT9uuDZQzYOwX1uhoK6jU1FNRraiio19RQYCjYxJProadrQ0G9YzAU1GtqKKjX1FBQr6mhwFBgKFjRBg7BTU9lhoJ6Z2soqNfUUFCv6aah4Pq7f3j/hyt4UuTzpje/pesA59cHyxiwdwrqdTUU1Gs6BQrk25Ti8w7B47/5wr/b+8J/8ZFfOljvUB9bKjMU1NvpZqEAo48Q8MSnf6N7MDAULGPAhoJ6XadAAetRwSumf/ElL70KUKzbWBaP/9EHfrpZL+a3Ahbl6gc/0KrTQ95UKIj3xH0e06OHe11rDIaC+rXP3F3MHy+SU1rLIE+9jqFgGQPGUfrPHNdqOwUKCP4RAFrrQwE8BrpD9ZjbY30KCEh7fkKugAL008MQGqKNNNUuAjpEfVUunaJGlNFOvjOWtealtzxDQe261/waClZ6p2woWMaAcXaGglpte4ECvSIcClbkM//H6snZnTNdAgp07/G+yBMUCAhUTn6rfEhftes1NRTUrnvN88VAAcYuitbN9ZROhYLveev3Xm2Pco/68JSAM+Q9Yk/3ufZY0MNQUOsceoECBbGhdU0+H8FBz8FtLhTk7wtIm7zeWA+CAnxE1gS9gAXakQ5pm/vt8dxQULvuNccXAQUiYi0G3VxP6VQoYNGy0P/aq75lv4A5Vx75d999920NBoaCesfQExRoFyDDbwySlwwF2Lc+McCPhYLsE9GTD77RUFC/dnqKOVPHsnko0OIQ/U4VYul2c6EgL26cIk8COAx2E5Yef6/9GwrqHVtPUDC0vvUggF1eMhTkda91KF10rpT1oDbeKahfG9L5ktNNQ4EWhsi354mqhgLuVc6Q3YKe733JsRkK6h3fVChgLvInrk0F8lyH4BVtRPVicMt16EN9ax3EJ+nYXw/Hc18f5HuQ78v56CLdpKPqqI12XSj364P69SO9t5puFgq0fSjH0PsELAEFWuQ4gtb9/4cvfXnvOLWjQD1eQ/zMh35uR5na5HpABrrGOqrbW8o9+TsFtY5tKhTkwJ1tRUFKQSuX6zzXy+eCAPWjc0PB1/dQJl3Qk3XMGtFHQECZoaB23ch+t55uEgoEBFui3CWggOCuQJ8N8bNP/uv99w0oJ8ijFUAg5xAdh/JVTxCxhdcS3I+hoNa59QYFWu96AMCWI4BcKhTkNe3zW+3cXzS8VY8q+9gkFGT6VaAjhX6rxKnspxoKYtD/6Mc/+ZR7VqDPT/w42L/3vn+woz33J4eaAYt8Q8Eyi67Srpboqzco4B6xT9a3ACGuc9kw6RJ6VPQ55fVBxXUvuQ9DwTL+aZNQsEVDnwsFBHkcoz4CIXYLsh4EfMp58j/2CkBbs3oKy331fs59eqeg1jn0CAUK/LL7aJcqMxTU2kHUuMdjQ8Ey820o6PyPF+kJSc4wpwT++NTE4lWgp+2xxSyAoF/aHYOIY/2tXc64DQW1zqFHKMCu9ForA6yhoHb+117DU69nKFhm3g0FG4GC+B0AFhHbqAr+BMa4Y6B80jELTk5VwIHTzdcb08856hgK6h3DUlCQ7Uz2RhoDvew32+BQvvolPYcNjrmmXx/U26mhoF5TbNlQsFEokCPi+wE41fjFKznPsVBAX4IMPY1lR63r9ZYyTu8U1DqHKVDQm130Nh5DQa2NMr+GgnpN0dVQsHEo4GmKwMhHjlBQMOb1gdrEVL/VQJ/6QmIs7+nYUFDvGAwF9ZoaCuo1NRTUa4pvNxRsHAq0dcp3CxSs+W0EguWYLxqqTU71XYa8hZvrnfvcUFDvGAwF9ZoaCuo1NRTUa4o/NxRsGAoI2AR+AmN8J8vE6jUA+fHLgxyzk6Bgz68dch7r8CpB/XqnYNzCQ+/qd9r0F18LrQVghoJxc37KfBgK6jXtHQrka/Xr4fhpjlu/Qn6KLS1d11CwESjIv5KYDS0GdYxGuwXaMeDJX0//5OmLiUAD53xyHf+dgnGOTK9wqhcr83HK90Kqrm8oGDfvp+htKKjXtHcowH/Kt+a0ZzAwFHQOBYcMi6Bx6OmUp3za66lfgR8gEEQM0ew5gtEpTlZ1uaepXzTUqxct2HzP+kM5Ks+7MRoD7XKZAEw7MqpLqv5IqRfL4jHljIG8PNY872PHGvsfOjYU1AewKVCAXUVbifN1LmCMY5hyjN1W7X5tAQqYQ3wsn+jLD637KbpWtjEUdA4FlZN9iX3hNKdCAW2liYKugjD5lEdQyOdqi5NT8NeuQUxVjxR4iAF9qE/qRMdRNdY4lqFjQ8H5oUD2qDnCnqItGgq299sH8gms5bi2Nce9pIYCQ8FVYOzFKE8ZBwtsKhTk69AXC5d8nHJ+osEp5zzq5zz1G/tTXk6BhLzLQB2cRoSH3C72PXasuY+hc0PB+aGgZWuaL+yN+dcnwoLySKNdyU4FG5TnwBT7jW11XVLZZbxOBGnVaZUzzpg/tG7i9Q4d975TkMduKFgp2Gbhez2f+meOe72fXsaFk6mAguyEOc9OUw413vtQUKcOYxNkxDbxmGtEp06ZXgVkZ6t2uXzsWNX+WGooOD8UaI6HAmfLbqgbbYlzgaUCUrRp7FP1WzbUshPa0062if3HPjmO5/RLffXVAliVnZpuDQrQCi346Dtdp97zGvW9U7ASvBgK6h0tC4QFNhUK5Ci1UOOCazlJ1Y/1aDsU+A+V0UcLMshvXTteE6cbn+Ra9VtjjX0cOjYU1NvqlO8UMEcEduwowwE2wLxrHlvzHe3iWDl1uY76G0pb19XYBDICBvUR18HtCgXxz8mjl77TJY16Sg0FhoKjjqAng81jweFMhYLYlxyaHG10qKqXg/gxBxedofpQquu1gAKnQd+qG1PGJSes/DFjVd0xqaGgHyjQfBGM47y3gjP2lj/Uo48WFGBjKqcOdqT2ObDHcVBP57Ff2bTKlEZ7PrZm1GZMupWdAgBAX/Ym7f3XvA0FhoKrBT5mIfZWBydWAQXcV3wV0HJeOfhmx5y1YWytoC/n2Qr80cnm/uS0c/6YseY2h84NBf1BQbaLbHu5PM9vqzzbs9qQHwFE+aSHriu7zkAR10HLVmP/pxxvAQoAgvjr4z3/KqK0NxQYCm5LKMBJxqckFgTOC4fIsRxcDNyU61zl2QFqYak/rhPz5JxzvupEMFEeKflDjlpj0dioH8ca+xlzbCg4PxRgm9FG8vy37AT7kP3meZbd0U5lQzZyKHAfggL6pTyuqwwYGofGMCfdAhSgBToPaT3n/pdqaygwFFw5iaWMbMl+WWxTdwrigqWf7FDlwLSoYznH0fnpHnMbtSWfOvmaKhdccK666lNBX3WVxuvn68axqp+xqaHg/FCQ5zwDYZzvDIOyD1LZgepzrvIICNkuZY/ZZqinPilTv7EeY9U18ripp/Jov7H92OPeoQB9pUOco7H3d656hgJDwW0LBXMWHQ6teqHjYFtOdM44p7Q1FJwfCqbM26E2reB9qP4WynqHAgHBUMqc9KizocBQ0KVhjl0sLLipOwVjr5Hr6Sku588958kiPoXN7W9qe0OBoWCq7azZrnco0JcLDQUrBdk1ja/iWv6VxHpHy7ycAwoq7KHnPgwF9bY69VcSq+zEOwX1c1o1N731452ClSDGULDMojQU1OtqKKjX9NxQ0FvgqRhP7zsFFfd4jj4MBYYCvz5YyQbOscCnXNNQYCiYYjdrtzEU1Nspc2goWCkgeKdgGQP2TkG9roaCek29U1CvqaGgXlNDwUpAgNCGgmUM2FBQr6uhoF5TQ0G9poaCek0NBYaCTb86wIANBfWOwVBQr6mhoF5TQ0G9poYCQ4GhYEUbYMFt4WMoqJ+nLUNBr7+5YCiot1NDwYpO2q8PljFg7xTU62ooqNf0doIC/gBX9R/2asG0oaDeTg0FhoJNPLm2HILyDAX1jsFQUK+poaBeU0NBvaaGAkOBoWBFGxDI9J4aCuqd7RQo0LY94Msn/n8E8f8woCw+mVPGX8eM/58BfVFHfcW/nEmZnu5VHv9fAo0j2q3+/wLqx7pqr1Tj0l8BVX68fuz3lGNDQb2dor9/JXGloODXB8sYME5m7T9zfIrj2mJdQ0G9rZ4KBQqiBGRsiFT/gZGAQLaloK26KldA1rmCt+oLMnSucvplXSlwq1zXo57GQh7nqsu5AEP1SelP49G5xhvrnXJsKKi3U/Q3FBgKNr1bYCiodwyGgnpNT4UCgmwM0jFYtoJuDMy5bQ7q9EUfCsqt8thHLBesCCjoi2BPfxpjHl8upx5QEcFCbU9JDQX1dor+hgJDwdViPmVB9lLXUFDvGAwF9ZpOgYKhoBkDutZhDLIxoFMeg7rqx8DdKieQC0piuaCAdRc/x6Ag1tXx0P1pjMdSQ0G9naK5ocBQYChYyQaOObleyg0F9c52ChQoKGe7iAFdZVN2CrSdH4O++otgEcsFBXGnQG2U5vG1dgpUd05qKKi3U+bDULBSQPB3CpYxYJ46/J2CWm0NBbV64mhPhQIFYlLak+rJmoCN3Sugqq4CdQzoahvrkxcDt9qrf8qpPwQNAEisq3EojYCivNif8uamhoJ6O2VODAWGgivnMneRnqM9zsZQUOscDAW1erIuToUC2hCUsW994voiKCufVEBAnalQINigvxj0BQ3x+kBFvH6sH8dNW9pphyG2EXTEfk85NhTU2yn6GwoMBYaClWzgFId3zrqGgnpnOwUK1rKBVtBf69pzrmMoqLdT5sNQsFJA8OuDZQyYJw/vFNRqayio1RNHayio19RQUK+poWAlIEBoQ8EyBmwoqNfVUFCvqaGgXlNDQb2mhgJDwaZfHWDAhoJ6x2AoqNe0ZyhgHW3xYyhYZt78+mClBeGdgmUM2FBQr6uhoF5TQ0G9poaCek29U7ASECC0oWAZAzYU1OtqKKjX1FBQr6mhoF5TQ4GhYJPbhnGr01BQ7xgMBfWaGgrqNTUU1GtqKDAUGApWtIEIMz0fGwrqna2hoF5TQ0G9poaCFQOCXx8sY8DeKajX1VBQr6mhoF5TQ0G9poNQ8NBDD+3uvPPO/R8x4JuI/szX4HnPe/7+m/Kk1nO+ntIQKLh27Zo1LVynT3v603d8pLHT+fb6jffcs1//1nK+ltLw3ntfaJ9auO6lK7H/vvvu2+nnDg4eeeSR3bPuurb70Udv+FOkwXe/7Qf2BkxqXevsCih4zbfeb02L7BTbvPebXrz/2E7r7PRNb/mO/fq3pnWa/uC7fsQ+tXDdyzaJ/Q8++KCYYLeHgps3b+6dwm///ld3/tRo8JGPPrE3YFJrWqMpOgIFGLM1rdP0ta97w46PNa3T9Cc/+PjeVq1pnaa/9rkv2qcuEKN5KLh+/bqhYOnFaiiocwZxrgwF9boaCuo1NRTUa2ooqNcU32ooWIC0YtDSsaFgGQM2FNTraiio19RQUK+poaBeU0PBSkCA0IaCZQzYUFCvq6GgXlNDQb2mhoJ6TQ0FhoLNvzc2FNQ7BkNBvaaGgnpNDQX1mhoKDAWGghVtgAW3hY+hoH6eDAX1mhoK6jU1FKzopP36YBkD9k5Bva6GgnpNDQX1mhoK6jU1FBgKNvHkeujp2lBQ7xgMBfWargUFrIdf/PinN7+uD615lRkK6u3UUGAo2LzzMBTUOwZDQb2ma0DBB3/2I7sXvfglm1/TCvrHUkNBvZ1uGgq+/53v3v/hCoICn9e/8c1dLwa/PljGgA0F9boaCuo1nQIF8m2/+ptfuMW3kd/aDcAn/tiND9xSl7Zb8I/HAKBVbiiot9PNQgFEHCFgC4ZvKFjGgA0F9bpOhQKeUhXISHOAajn22yVvKhSgafR16IW2LSggPwMEc6AHqFy2de0NBfVrH5u4mD9exMLpeeusJygAqnAg3/6db73lqUJOAofzile+6srB41RU1lvKffjPHNc6hylQwDzk9cd5K3j1ZkNrjGcqFGitRh3ROp4z/vygpHvSHOAfLw3SDAW16142YyhY6XsFPUEBzgHHkp9AMAqeJu66dve+HDCgDnVlML2ljM1QUOscToWCVuBq2QmBjPmifqv8kvOmQgGaAeURuNAwQ0Er6EtvdEXz2MclaG0oqF33somLgAIFuZ6dzVwo+Nznv7T7iZ/60FWQxjEQvHEYp24LSq8WFBwqk9H0lBoK6h3DqVAgm8mBKtuJglTP6zSPuep8DhQwhghTGQpY/+RlP4BviLt8uV3VvZ2rH0NB/dpnLjcLBXJEGDqf3h3NHCj4lU89uad83aue4CF/5Z1y/9KuBQXaGQBAzrXYT7ku99/DTgFzccocjLlH+jvH092pUKBgf2is0VZls6TSAbvjo74oi3pyHNsNXSvWadl3HMdQHxpTZToXCnT/jIl7jADGem7da64njSvv65x99Q4FPMj90Hvf9xTf/fjPf/zK7s+p39C1NwsF+YbkDHJ+L+dToSBv5+enAZyD3v+PvdcxUBCdzth+z1GPeT83FCiQVd8/Tpy5qu73WH+nQgH98USqNTg0ZukUg73Gwr2qvfKUyl6jTaq+6pDSPj4ZcxyvBQTQTm3od2isqlOVzoUCxsH4W1qQH++TuoIIaRrT7EOq7nHtfnqHAtlo1F7HPYPBxUCBFkFeHGsb6tD1pkKBDIvAD3m2+heRtspaeXIs0UGqnq4XHbDKekxZZFOhQDajhZoDBM5TZaQx4EQtaJfLDukY+2zNgfqmnhx4Hmu287FjVd+H0ilQQH95jFnPMVCQ7U73lfvK+TrPusT7RM/cTyxf8rgCCqQf9yGdlJfHjl1lm6TOOTXIY5x73jsU8EVu7E1+m91X9Ocz9CXvuZpUtL8YKNDiOOQUKgSb2scUKJCjw4imkCWaYHwyRMCCPAyVvBiQFMRUN6a0mXrfS7djnFOhgLYanwIamiuP8hhE8rnq8aQmjUipF1PVI81Pr0N9Mp44P9RTP3PGqj4OpVOhQH3q3vO9Kb+1RrlXdFQfSnWvtFWeUvqPgY/25LX6p41sPM6p+lo6rYACxsj9co+yU86jBtSR31CdeG/Ubekc62zluHcoaOnI3GW7bdU7Z94moQDDzgtbDuGcYh669hQoEFnyhcJDfbfK5EwxQLTBIcbfKiA/Bh3efeU6nPPhOw2ta/SQx31MhYI8fvpS8EG/7DyxuZxH/ZynfmN/ystpy6lTB92Hghvlse+xY83XHjqfCwXqlzFGbeZAAX21Pjkgcj3VQ0ONRSl5Ko9jU/lS6RQoGDMW7kE2O6b+JdXZEhSwW4CtyvZ6nrNNQgGGLXGVrrnApyysKVCgp/yWczs0BgxQABDhiXz1iW6tfuU0ezbaeO/cRwUU5IDPedZHoBWvPxTUqcPYjunINeIc0e7Qk16rfOxY47gPHVdBgWxJ10ILNGnBDnVba1iaH9NR11CKJlwrQ4PK1W+eY5VXp0tAAZq0NKsee6/9bQEK5IexRT6cT9n1XXMONgsFa4pUca0pUCCnylP8KWPQDsOQwxAYtByirnmqEz5lfJV1WWhToUBBSgs2jqsVaFU/1qPtkFaHyuhDgSn2x3Hr2rEOcxSDXat+a6yxj0PHVVCA/UUb05hOgQIBEvd4aMytsnz9XIexDa2RXHfu+RJQMHdMW2+/RSjAJ2BzPe++Ggo6/uNFCtCnOkQF/aF25GOc0WHLQeiaQ4FO9XpJuY+pUBDvIQcfNMr65CDO+aGgcggKdL2WzvTZCpyMl3Hla44Za7zXY8enQgE6RUihf87z/euec13q00e+L42z1Rdl1Jd+aBD71bXIpy565vlkfLGNrrdEaiio/536LUCBbIldWj2sYXdDtq7650wNBRuAguzMjhkM9TE8OcRcn3zKW/2qrZxtbtvbOfdRAQXcFwFCQaIV8NEtasbxkMb0x9haOipgtQI/9WnX0lnzlsvGjDW3OXR+KhTQF06OccdP6xqMVXWiY0TLeJ7b6t7VljRrK9tVHc2l+uJcZaRxLlVnqdRQcHtDgewq2mC2X9U5d2oo6BgK5AgPOcuWAck5DgUs9dtyimrbq8Hm+8W5T4EC7i/fP31Js1bgplyBXOWkeUw6p37WkfNWvtrgNHIwo4y8ITvQWDQ26sexqu+x6RQoGNv37VrPUGAowPYNBSsF3C04minfKeALKTh3Pqe8g1JgV4DL+hgK/sRBSSdpnPVSAG+VUzdDBTrnNmorOMjXVLnggnPV1bwp6Kuu0nj9fN18L+prTGooqA9ghoJ6TXt+fYC/5lfAI6jjz/XFQ9Ixa/EcdbxTsBK4TIECDIKnQ4JADAAtQ+HLiLy3okxBH6Ns1dV3Dlp9KmjlwNTqp4c8tJmyUzB37OgUF/zc/miP5kO7ARX9j+3DUFAfwAwF9Zr2DAVDIC+g7/k3EAwFnUNB3C0gmOuJUg6eQELwx9hUFg0yBi7/SmKNY5K+moOqlK3FOU/4VeMwFNTYSZwPQ0G9pj1DAXOPb8Znx90Bzk/Z9Y02tNaxoaBzKMAQCOwyLII/EMCTqmCAvBj8acPOgahU9XWu91reKah3VGst3CWvYyiotwtDQb2mvUPBkmt0yb4NBRuAAgyAp1MCfQQBtpoJ8NohyIYCKMT6olRIFUDgPLchjzK/Pqh3YlnrXs8NBfVzbyio19RQUK8pPslQsBEo6DWAnHtcAMw5vlNw7vte8vqGgnpnayio19RQUK8pfsVQYCh4ym7BkgGnum9DQb1jMBTUa2ooqNfUUFCvqaFgJSBA6Km/fVAdRC+tP0NBvWMwFNRraiio19RQUK+pocBQsOldAgzYUFDvGAwF9ZoaCuo1NRTUa2ooMBQYCla0ga3s0hgK6p2toaBeU0NBvaaGghUDgl8fLGPA3imo19VQUK+poaBeU0NBvaaGAkOBdwpWtAHvFCzjxLagq6Ggfu4NBfWaGgpWDAjeKVjGgL1TUK+rdwrqNTUU1GtqKKjX1FBgKPBOwYo2sIUnWsZoKKh3toaCek0NBfWaGgpWDAjeKVjGgL1TUK+roaBeU0NBvaaGgnpNDQWGAu8UrGgD3ilYxoltQVdDQf3cGwrqNR2Egoceemj3DXfeuf9zh/zJQ3/ma/Cc5z5v/zv1pNZzvp7SkJ2CZ911zZoWrtOnPe3pOz7S2Ol8e7372ffs17+1nK+lNHz+C+61Ty1c99KV2H/fffft9HMHB4899tgOMLh586Y/RRo8+uijuwceeGBHal3r7ApNH3nkEWtaZKfY5sMPP7z/2E7r7PQ973nPfv1b0zpNb9y4YZ9auO5lm8T+97///WKC3R4Krs58YAWsgBWwAlbACty2ChgKbtup941bAStgBayAFbhVgf8PtBBCD2PWNa8AAAAASUVORK5CYII=;" vertex="1" parent="1">
          <mxGeometry x="358" y="551" width="495.05" height="203" as="geometry" />
        </mxCell>
        <mxCell id="ItB4P-0cPvp-1sTLBnrw-16" value="&lt;b&gt;&lt;font style=&quot;font-size: 20px&quot;&gt;Other Tasks (Rework/Unplanned)&lt;/font&gt;&lt;/b&gt;" style="text;html=1;strokeColor=none;align=center;verticalAlign=middle;whiteSpace=wrap;rounded=0;sketch=0;fillColor=#4481DB;" vertex="1" parent="1">
          <mxGeometry x="358" y="783" width="493" height="34" as="geometry" />
        </mxCell>
        <mxCell id="ItB4P-0cPvp-1sTLBnrw-17" value="" style="shape=image;verticalLabelPosition=bottom;labelBackgroundColor=#ffffff;verticalAlign=top;aspect=fixed;imageAspect=0;image=data:image/png,iVBORw0KGgoAAAANSUhEUgAAAgQAAABQCAYAAABmgm1eAAALzUlEQVR4Ae2dv6ssZxnHTytCgiHBIuamyClEBasQ8JosHCRiIFwQRELEPZWIv5uYIspCOislksZeEBsLKyv9ByzsLPwLbCwtV74rz83LnJlzzr37ed87e8/nwjC778zOj8888zyfefaw92yz2ezPzs6cZGAMGAPGgDFgDNyxGDg/P9/Xv7Pdbrd/7oXP7X/9x385QQx+uPv94abKXK5cXEVcv/6tn8gUitPE5vkXXztMxikXp+/84FeH+1+mHNNffvw3cyp431dspvZfXl6WD+wVgg6QFQIuEVTgZq4Q8FwVAp6pQsAzVQh4psmpCkEHAWiLVl4rBH2CVyHguSoEPFOFgGeqEPBMFYIBMqAQ9AnccFUIeLYKAc9UIeCZKgQ8U4VAITjp798VAj4pKAQ8U4WAZ6oQ8EwVAoVAIRgUA7nZTmFSCPjrpBDwTBUCnqlCMChJ+zcEfYLXDgHPVSHgmSoEPFOFgGeqECgEJ/HUuvRkrRDwSUEh4JkqBDxThYBnqhAoBArBoBhYkpq1jSsEfKJVCHimCgHPVCEYVAz8yqBP8Noh4LkqBDxThYBnqhDwTBUCheDWHYIU3/tvvnvr9Uc8+SoEfFJQCHimCgHPVCHgma5eCL7709/c+ic/s+7zn723qoJVRXFEh+AXv/3rgVWK5HVTOOW4Pv/l1w/r5XN1nNfNFYI+N+B1zJ/EMoWAv84KAc9UIeCZJt8gv1R4XQE65qnyUYQgBe7td39+KG7Z5/SYqhA+iSQ7Qgim5/XjD/9wYFBMpssVgj431JTzqb1XCPi4UAh4pgoBzzS5ChGCNunlKX2pCLXr3eb1bYWgil897UYIUvBqH7WdrFdjjzOPZDzONtYoBHPnXyI1t8wOQZ8bcI71kxxTCPjrrBDwTBUCnmnyzlMhBFMBmL7PiUYQMn5MslUIjuN3DPu5z+Z6+L8dsolBIWB5Jm4VAp6pQsAzTaxeEYLtdnsYnEvAtxlb6hBMv+NuuwjTZVW468m+9pvPpAhUJ6DGM9Z+JTAnBDmu2m4+l9f5XE21rcxre7Vs+7OPHq5XY+3+2s/OvV5jh6DOP8dbHZY6t5q3vDLWvq/zrK8e6jPtda11es2zT4WATQwKAcszsa8Q8EwVAp5pYvWKEGw2m/1nnn/xsZ+k54QgBTzjVRiqAFX7PUVlrpC0QlAyUNuoebtOjaVwXfeVQZa3BT3rtutXcZsTjzrm2tdt5msXgjqHcMm51/t2nvGpEOSatte1xG66Xrsd8rVCwCcFhYBnqhDwTBUCnmly8xUh2O12XToE00KQZF5FeVqQa90q9pGBtvDU8szz2WkBqsKWfdQ0Le7tNqbbb4+tXS/jCsH/A7EEbcp1abzlSL3O9bBDwCYGhYDlmVhXCHimCgHPNLE6TAiqUFSBnhbdFPZaVkWmhCDjc0JQT6TTIh0haJ/45wpQ7avm7fYzVrLSfjbj0321y5deP40dgvBtmdW51zV7HE61jdvOcz0UAjYxKAQsz8SyQsAzVQh4ponVIUJQRaJN9EtFt8Qh67afS/GZdgKy7lzhv0kIsq18to4nr9vitnRsCsEnf1TYCly4TCeFoM8NWzHba64Q8NdNIeCZKgQ80+SUIULQFvnstAp95tPElrEqzrVe1qluQFvIs97cNm4SghSv6XZqn9lXls9td2l8eg7T93epQzA9957vcz3sELCJQSFgeSb+FQKeqULAM02sDhGC7Kh9okzBbot5Ens7Tb8yqKKSp84qyvW6lrXzm4SgPlv7vG2HoMSmjqHd53Wvn0YhKBZ1ra47/17Lch0UAjYxKAQsz8S+QsAzVQh4polVXAh6Jf/pdlP0M03H1/j+VISgivxcuz/Fd8o7Y21nJezz2elYr2uiEPBJQSHgmSoEPFOFgGeaPH2yQpBiMFe4ehWfY7Z7KkKQc2w7ORGEOu85IciyFP8sq2mUDGTf2acdAjYxKAQsz8SpQsAzVQh4ponVkxWCHPypTE9CCE6FzTHHqRDw94BCwDNVCHimCgHPNLlYIRggFgpBn+BVCHiuCgHPVCHgmSoEPFOFYIAMBLJC0Cd4FQKeq0LAM1UIeKYKAc9UIVAITuZrlwTrdFIIrjKZMnrU9woBz1Qh4JkqBDzT5Aq/MpgpNI+aRG9a3w5Bn+BVCHiuCgHPVCHgmSoEPFOFYIAMBLJC0Cd4FQKeq0LAM1UIeKYKAc9UIVAIrrThb+p2rGm5QsAnBYWAZ6oQ8EwVAp6pQqAQKASDYmBNInXdsSgEfKJVCHimCgHPVCEYVAz8yqBP8Noh4LkqBDxThYBnqhDwTGeFYLvd7j/16WcOvwCXX4FzOp7Bq5tvHn5VL3N5Hs+zGEYIXvnCazIF79PnXnhxn6kYOz8+Xr/06tce/qqmPI/nGYZvvHVpTgXv+4rL1P6Li4t9/TvbbDYH0Em2TjIwBowBY8AYMAbuTgycn5+XD+zPdrvd/qV7L+///Z//OkEM/vTnvxzkKnO5cnGVJPXe+x/IFIrTxOb9r75xmIxTLk4/+vh3h/tfphzTv//jn+ZU8L6v2Eztv7y8VAgKSI+5QsAlgvb6KAQ8V4WAZ6oQ8EwVAp5pcusVIXjw4IEdAti8FII+wasQ8FwVAp6pQsAzVQh4pgoBXPjbp9f2tULQJ3gVAp6rQsAzVQh4pgoBz3RWCPwbAh60QsAzTfAqBDxXhYBnqhDwTBUCnqlCYIfgpP8gTyHgk4JCwDNVCHimCgHPVCFQCBSCQTGQm+0UJoWAv04KAc9UIeCZKgSDkrRfGfQJXjsEPFeFgGeqEPBMFQKeqUKgEJzEU+vSk7VCwCcFhYBnqhDwTBUCnqlCoBAoBINiYElq1jauEPCJViHgmSoEPFOFYFAx8CuDPsFrh4DnqhDwTBUCnqlCwDNVCBQCOwSDYmBtnYCl41EI+ESrEPBMFQKeqUIwqBjYIegTvHYIeK4KAc9UIeCZKgQ8U4VAIbBDMCgGlp7I1zauEPCJViHgmSoEPFOFYFAxsEPQJ3jtEPBcFQKeqULAM1UIeKYKgUJgh2BQDKytE7B0PAoBn2gVAp6pQsAzVQgGFQM7BH2C1w4Bz1Uh4JkqBDxThYBnqhAoBHYIBsXA0hP52sYVAj7RKgQ8U4WAZ6oQDCoGdgj6BK8dAp6rQsAzVQh4pgoBz1QhUAjsEAyKgbV1ApaORyHgE61CwDNVCHimCsGgYmCHoE/w2iHguSoEPFOFgGeqEPBMFQKFwA7BoBhYeiJf27hCwCdahYBnqhDwTBWCQcXADkGf4LVDwHNVCHimCgHPVCHgmSoECoEdgkExsLZOwNLxKAR8olUIeKYKAc9UIRhUDOwQ9AleOwQ8V4WAZ6oQ8EwVAp6pQqAQ2CEYFANLT+RrG1cI+ESrEPBMFQKeqUIwqBjYIegTvHYIeK4KAc9UIeCZKgQ8U4VAIbBDMCgG1tYJWDoehYBPtAoBz1Qh4JkqBIOKgR2CPsFrh4DnqhDwTBUCnqlCwDNVCBQCOwSDYmDpiXxt4woBn2gVAp6pQsAzVQgGFQM7BH2C1w4Bz1Uh4JkqBDxThYBnqhAoBHYIBsXA2joBS8ejEPCJViHgmSoEPFOFYFAxsEPQJ3jtEPBcFQKeqULAM1UIeKYKgUJgh2BQDCw9ka9tXCHgE61CwDNVCHimCsGgYmCHoE/w2iHguSoEPFOFgGeqEPBMFQKFwA7BoBhYWydg6XgUAj7RKgQ8U4WAZ6oQDCoGdgj6BK8dAp6rQsAzVQh4pgoBz1QhUAjsEAyKgaUn8rWNKwR8olUIeKYKAc9UIRhUDOwQ9AleOwQ8V4WAZ6oQ8EwVAp6pQqAQ2CEYFANr6wQsHY9CwCdahYBnqhDwTGeFYLvd7p959tn9e+9/4AQx+PY739nnaTZzuXJxFaZfuf+6TKE4TWy+dO/lw2SccnH6jbfePtz/MuWYfu/7PzKngvd9xWZq/8XFxb7+nW02mwPoJFsnGRgDxoAxYAwYA3cnBs7Pz8sH9mcPX/lCAhKQgAQkIIE7S0AhuLOX3hOXgAQkIAEJfELgf3pavfSvEPdwAAAAAElFTkSuQmCC;" vertex="1" parent="1">
          <mxGeometry x="357" y="828" width="496.65" height="77" as="geometry" />
        </mxCell>
        <mxCell id="ItB4P-0cPvp-1sTLBnrw-18" value="Submit" style="verticalLabelPosition=middle;verticalAlign=middle;shape=mxgraph.basic.rect;fillColor2=none;strokeWidth=2;size=20;indent=5;labelPosition=center;align=center;fontSize=16;fontStyle=1;fontFamily=Helvetica;strokeColor=#0e8088;gradientDirection=south;fillColor=#00BABA;spacing=3;spacingTop=0;" vertex="1" parent="1">
          <mxGeometry x="739" y="929" width="112" height="37" as="geometry" />
        </mxCell>
        <mxCell id="ItB4P-0cPvp-1sTLBnrw-19" value="" style="shape=image;verticalLabelPosition=bottom;labelBackgroundColor=#ffffff;verticalAlign=top;aspect=fixed;imageAspect=0;image=data:image/png,iVBORw0KGgoAAAANSUhEUgAAAW0AAADCCAYAAACCPJOtAAAcNUlEQVR4Ae2d648cxXrG5x/gCxISn5COQgghhBBCIBACAQERJEACIYTLAQkEgSABcSJuIUAiCAEHKQaCjY+vwAHW2BybcDAcDM6xsLENB2J8SdbgKwu2F8uLd2Z21thWRU8t72xNbc/Ojmd3tmv392HUPT3dXdX1Pv2rp9+q3i0cPHjQff/9966/v99/Dhw44PjQBmgADaCB8deAcVmMFqsPHz7sCvpSqVT8hyCNf5CIATFAA2gg1IDxWaw+dOiQK4jkxWIRd80TBhpAA2ggpxoQo8Vque1CX1+f27dvH8HKabDCHpd1HBgamJwaEKPFarntQqlUct3d3UAbaKMBNIAGcqoBMVqsVqdd6O3tdbt37yZYOQ0WzmpyOiviTtxDDYjRYrVSJB7a33zzDdAG2mgADaCBnGpAjAbaOQ1O2LuyjttCA2hAGqiB9v79+/0GxIE40AAaQAP51ICgLVb79AjQzmeQuHmICxpAA6YBg7bmbBeANsIwYbBEC2ggnxoA2uSzGXBCA2ggIQ0A7YSChfPJp/MhLsSlnRoA2kAbl4UG0EBCGgDaCQWrnb05ZeEe0UA+NQC0gTYuCw2ggYQ0ALQTChbOJ5/Oh7gQl3ZqAGgDbVwWGkADCWkAaCcUrHb25pSFe0QD+dQA0AbauCw0gAYS0gDQTihYOJ98Oh/iQlzaqQGgDbRxWWgADSSkAaCdULDa2ZtTFu4RDeRTA0AbaOOy0AAaSEgDgnZXV5dbsmQJf+UPZ5FPZ0FciAsaGNQA0E6oh0W4g8KlLWiLyaoBoA20eTRGA2ggIQ0A7YSCNVmdBdeNq0YDgxoA2kAbl4UG0EBCGsgdtJcvX+4KhULDj/ZT72v7z5s3z39fv369O+WUU5x91z6PPPKIu+iiixr+02IdM1zZJ5xwgrv77rvd5s2bkxG5tYfa4Ejcio5Te+o8R3L8WB4z0riOZR0496ADpC3a0xa5hfZ1113nHn/88bqfjRs3eoiMBbQfeugh995779V83n77bXffffe5o48+2p1xxhlu3bp1uYNY1k0DtNtzI2W1Pdto+7HQQG6hHTrlZi7cIBUeP1JHZk47PDYsW/+y/s0333RHHXWUe/DBB11fX18S4A6vYSKtjzSuE+mauRY6AqAd5LIaQVs3jCa1X3DBBe6SSy5xu3fvBtpB+7UbKEAbgLVbc3koL3loj0V6pJ7TVsDUYMqPxzlyufCPP/7Y3XTTTT6FIjd++eWX+xSLfrNg25OA0i8dHR3u/PPP93l0pVxeeuklVyqV3IoVK/yxOsfJJ5/sZs6c6crlcvUcOpc6j8cee8ydeeaZ1Tz8ueee65599ln33XffVfe18gQ4Haffbr31Vp/nV27+lltu8fVV2kfrcb5ex4U5bTvf+++/75YuXVqtv/L9Tz/9tNu3b1+1bJVXqVTcG2+8Ud1P1/niiy+6d99919fbxiasfbKWqrOuS8eqTdTGW7ZsyRyrGEm7fP311+7iiy92119/vdu7d29NfVX+1KlTfVmdnZ3+N7XJXXfd5Y477jhf51NPPdW3/a5du4Ycm1V/ttG5jKYGgHbgFEfitD/55BN34oknujvvvNP19vb6m1ZQFnAFPsH81VdfdYsXL3bXXHONh8z8+fOdgdugp5y9IDRr1iy3aNEid+mll/p9p0yZ4s466ywPap3jqquu8tsXLlxYBcQXX3zhzjvvPA/TadOm+Y5hwYIFfl8NpAqecXkxtAWts88+2z388MPunXfe8aASeLUtBHc9aIf1V77/jjvu8PW85557qu2i9NFTTz3lt6stdD3qgNQJ6BpV10bQFrDt3EpJqa7qrC688EJ37bXX1nSeI20XtY3qdfzxxzvFM7yh9PR0xRVXVOOrsRPFyeKq8tVmivUNN9zgvv3225rjw3OxDqzHQgO5hfZwszjCG71dTltOd+XKlR4WclxhHQQ5wU5ONXSaOubRRx/1kP/ss8/8zW3Q1v6bNm2q3vCChyCiDiEEyfbt2z2g5fSKxaLfXx2E3N6HH35YPV7i6O7u9iALUzdWXgxtOdawM9Hxcv5qd3UiJrZ60BbIwsFYdWDqyARjwVPH65p1PWqD8ElBx+n4kUBbkFRd586dW+2IdG459WOPPbYG2s20i9pOxz/33HPVa9V5bbu1wezZs/3Tzueff17dT9B//vnnfVw+/fTT6nZrM5bAeiw1kFtoDzd7xGaOqGHGAtrDdRhyXEpfmJNVHeTQBZYQ5BY0g7HBwSB677331gxkWtrl5ptvdj09PVUQaF3blNII0x52/ngpyIapGysvhracujqE8HiBSemYMD1UD9px/XUeAS5MpSjNkOVmzek2gracusrJqqvSGkpvhNcaXku8HreLOrgrr7yyJkVi9dKYxY4dO3zb6JoEd0FcqZ74vHwH0O3WgFixf/9+r8eCVrSh3ZUIy4shHP6WtR7vb5CKwTOSm9vSI+GUP0tzyF3rBs6aMSIgCE46Pp4q+Morr3gQGuSsfgZRuyaDtsoOOwTLQWdBW7/JtSo98eSTT/r0iKVoLI5xeXY+AUvgsvK1tH0FW9teD9rhPravrl+A++ijj7yobr/99rpQFQQbQdvAGndkVl4MYts+knbRvupIw07FUiPhzCBLj6iuSh898MADvnNWGVYeS8DdTg0A7RHktHWD6maVm37iiSdqHvUNgsO5c/1m0DUwhp2KAm7QjmFu57fjta+2CZoCtJWrdInqGLtPK8/Om3U+E1y8r7bXg3Zcf+2rbaqPOlIrp15naZ2tllZ+vLQ2Ca893CeGdjPtovNY+saeglSXY445ZsgTk55IlOIRtK291faKgcoM68Q6AB9rDQDtEUBbQfjqq6/cZZdd5p2k8qkWGLliueMwl2u/ZS0NjDH0DFAGVzvW4GfgUnkaaBQ87r//frd169ZqJ2LphBCUVp6dNz6flaNlvK+2HSm09dQ2nNPW04EBPqxDuN6M0262XVSOxh9uvPFG39FpQFFg1iBkvamcSo8oX6/B43POOcfXf8aMGVUthHVnHXiPlQaA9gihrQDY4JcG+nbu3Fm9WeXUhstpa1reM8884/c3MB4ptA1kyrtqelsojKw8r5XXbmirXnKiYfrB6irAavZGI2hbJ5TVIVrnYx1Us+1iddHgq+qotJaAHaZ91PGoY9QsFZ3fjtEybtfwN9YB9lhqAGg3AW3NgNCr7IKN0iSW37YbWLnXcN6vwKJZH8rz2kwP2/dIoW1gltOTyzZxCISa9qfOIxy4s/LGA9qWfmhl9siyZct8++lPGoQzUARZjTMYtJttF2s3zcXWTBY9FWgZztzRPnLSil/4dKXta9as8bAPIW/nZAm0x1IDQLsJaCsQNr1PwFi1apWHpoCp6XMCpiASztMW4EPgGESPFNqqg47VeTWHWwOl+tx2223upJNOcldffXXNDA4rbzygrU5NnZvqavO0lVo4/fTTPQi1fbictq5VoFb7qW01X1tpFYFS16r8s0G72XbR/vpoGqU6VtVFqZJwyqZ+t7SY8tkqV52FXUM8p93OyRJoj6UGgHaT0FYwNB9YEAlfrhC4wzciBQG97ajH79AhGkRbgbbOpzrYXGcBRS+cKF0iqKlumt+sulp54wFtla+6xm9+6o3IF154ITN1kiV2O4flkXXdun4NvIbQbqZdwnIsvx7HxPZRu2pGiQ1Ehu1t+7AE1O3SQO6g3a4Lp5zxvck0DnDaaafVvGA0XjHR9EN1BPba+njVg3LHV5OptD/QDpx2KkFLpZ4vv/yy099DWb16dTX3rrprdoZSO1npiHZfm9IhepM1nJvd7jpQHrBuRgNAG2jXALUZ8TTa115MUQ5bs2eUD54zZ45PaWhMQN8bnWOsftd4hHLl6jzC8YmxKo/zAubR0gDQBtpjCk4N3Oq//Vg+WIDUwF/4R6lGS8zNnEd/R0Z10Wv7r7/+es1bqM2ch32Bcbs1ALSB9phCu92CpjwgOtE1ALSBNtBGA2ggIQ0A7YSCNdEdBNeHS0YDjTUAtIE2LgsNoIGENAC0EwoWLqSxC6GNaKOJrgGgDbRxWWgADSSkAaCdULAmuoPg+nDJaKCxBoA20MZloQE0kJAGgHZCwcKFNHYhtBFtNNE1ALSBNi4LDaCBhDQAtBMK1kR3EFwfLhkNNNYA0AbauCw0gAYS0kANtPfs2eO2bdtGABMKIM6ksTOhjWijiaQBMVqs7unpcYUNGza4tWvXAm2gjQbQABrIqQbEaLFa/7SjoP8+Les9kXolrgWXhQbQwETSQE16BGgj7okkbq4FPU9EDQDtnD4CTUSxcU1AFA20rgGgDbRJh6EBNJCQBoB2QsHCpbTuUmhD2jB1DQBtoI3LQgNoICENAO2EgpW6Q6D+uFw00LoGgDbQxmWhATSQkAaAdkLBwqW07lJoQ9owdQ0AbaCNy0IDaCAhDQDthIKVukOg/rhcNNC6BoA20MZloQE0kJAGgHZCwcKltO5SaEPaMHUNAG2gjctCA2ggIQ0A7YSClbpDoP64XDTQugaANtDGZaEBNJCQBnIF7R89X0Q8CYkH19S6a6INacNmNQC0gSQdJRpAAwlpAGgnFKxme2T2x8WhgYmnAaANtHFZaAANJKQBoJ1QsHBNE881EVNi2qwGgDbQxmWhATSQkAaAdkLBarZHZn9cHBqYeBoQtLu6utySJUtcYbz/GztT/iaewIAGMUUDo6sBoI3T5tEYDaCBhDQAtBMKFo5ldB0L7Ul7pqgBoA20cVloAA0kpAGgnVCwUnQF1Bk3iwZGVwNAG2jjstAAGkhIA0A7oWDhWEbXsdCetGeKGgDaQBuXhQbQQEIaANoJBStFV0CdcbNoYHQ1ALSBNi4LDaCBhDQAtBMKFo5ldB0L7Ul7pqgBoA20cVloAA0kpIFcQTvFXo8649bQABpopwYEbf2dqEqlMv5/MKqdF05Z3GhoAA2kqAGgndBjUYoCo86AEQ2MrgaANtAmn4kG0EBCGgDaCQULxzK6joX2pD1T1ADQBtq4LDSABhLSQK6gPW3aNKf/XsOHNkADaCDPGhCrxsul5wraaoQ8B4q6ARI0gAakgfECtsoF2jh7Oko0gAaa1ADQTiifNJ7BomwGztAAGsid00aUiBINoAE0UF8DQBuXP675OW7O+jcnbUPbZGkAaANtoI0G0EBCGgDaCQUrq9dlG24MDUwuDQBtoI3LQgNoICENAO2EgoWjmlyOingPH++enh43ffp0N2XKFL/U97DNurq63OLFi12pVKpu17b58+e7eF87bvPmzUPOtWbNGl+GytG67TteS6ANtMddhOMlfsodHop5b5+lS5c6fVTPcN3qLQDb79omYE+dOnUIlG1/6wTUERjUdYy+axmu2zHjsQTaQBtoo4HkNGCAFZgNyLGDFrDtd3PL2hZCOYSu9pk3b17N79rW0dFRdes6frzdNtDmhk3uhg1vNNbTdstHGr/Y9cbfBXXB1hzz9u3bPXiz0h+qg45XKmXjxo010Bak9bF6xt9tezuXQBtoVwXZTuFR1uSE7WjFXZANnbXgrO/arjIMwmE+W9vrQVsw1m/x79oeOmuthxAfretp5jxAG2gDbTSQnAYaQVtwDWFrUIyhbCA3EMe/A21ujuRuDhM7S5xxnjQgaNsAoeoVfxdsBeC4zjGU5cSVFtHx2jf+XecxoOv3+Ht8/nZ8x2nTkQwRdjuERxl0Aq1oICsdYumSOJ8dlhNDWbDWjBJN5ws/2qbf4nSIoJ3l4MMyxnodaANtoI0GktRA6HrDdYFZ37PgGUM73if+PXTw4Xp8XDu/10B7z549btu2bZkX285KURYuDA2ggUYakKNWiiR+uaZePlvni6Ecl5H1u85nLny8XbbqK0aL1br+woYNG9zatWuBNs4LDaABNJBTDYjRYnVnZ6cr7N+/3/8rm7j34TuuBw2gATSQDw3UpEeAdj6Cws1BHNAAGqinAaCd00egegFjOzczGpjcGgDaQJvcJRpAAwlpAGgnFCwc1uR2WMSf+EsDQBto47LQABpISANAO6Fg4bRwWmgADQBtoI3LQgNoICENAO2EgoXLwmWhATQAtIE2LgsNoIGENAC0EwoWLguXhQbQANAG2rgsNIAGEtIA0E4oWLgsXBYaQANAG2jjstAAGkhIA0A7oWDhsnBZaAANAG2gjctCA2ggIQ0A7YSChcvCZaEBNAC0gTYuCw2ggYQ0ALQTChYuC5eFBtAA0AbauCw0gAYS0gDQTihYuCxcFhpAA0AbaOOy0AAaSEgDQDuhYOGycFloAA0I2l1dXW7JkiWuwH9jRxBAAQ2ggXxrAGjjtHk0RgNoICENAO2EgoUDyrcDIj7Epx0aANpAG5eFBtBAQhoA2gkFqx29OGXgFtFAvjUAtIF2213Wru/63b3v97nfn1t0vzZ94KP1J1b2uX2l/sz6aPvlr5fcj54vun9b2Ze5z8uf9/nf/2xBye3pHXoebbvktZL/xL//b3e/u+3tsvvd2QNlqF7nvFhysz6ruL7K4E385d5+d/qcoi9Hdcn6/NZPSu6DrQPlW520nGww7O074P7z4z7fjmpPtZXa5ua3yk7tXa89OjZU3PEziu7s+UW3Ze/gfjN/VfF6efqj+m1Z7Dvgrl1c8trq7O53j/yynBmjMG4/XlKqW5d6dRzP7UAbaLdVsO9+WXGnzi65E18oulveKruZn1bcf6zp8yDVjf2nHSW3a/8gJO3mWLWj4oGqm/7CV7L3MUDqPP+yojzkurKg3X/ggJv9WcXX5+SflNw9vyi7Of9TcU+tGoCNbm7VUwBSXQzaZ8wd2K7f4s/fLi279bsmN7TVXmoXtd/vzS05gVHfz/9pyYNXGnj/h47NYqyl4vE3b5c93H/jhaITqO33z3f1+3Op867Xua/+quJ+Z3bJn0PnErTVAfzlG0PjZHGT/qyMFJZAG2i3TbAC2Znziu4P5hfdp18POii7WXXz6Aa7852yv3nDG+i+D/rcaXNK7oEP+tyvzyg6ubHwd60btAUKQeGjnbX7ZEH7vS39HhCXdpTcVz21nYXA8w/L+jxk/v0Hd2fQHqk7szpNNqetzvk3Z9Z2eBavn2+u+DaXI5Yztu1aGphv/XnZd84hoA3ovz2r5NSJh8fZup7CVK7K1zZBO3zysf1SXgJtoJ0p/rEQtcArKGcBV+XJPV25qOw/SqFYHb7+7oB3aH++sOzkpOTcsm54A6Tcsm7UKxeWaxxZDG17lB4OAno8lzu8Y2nZ7S8POm2gXQtbi5UtLRZZnZXa/a9+VnZ/+GLR7dhXe57pnwykRhZtqjjpJQSwzv3W5oqTAxeMrSxbxvHVdqAN4IYIxQTDsvbmi9vDwCsAaj3+fbjvluNULlNu66Y3Sy4LtAaKl9b1uX/673KNQ9b545t63a5+794FkNjx1asPTntksZMTVoyuX1xyYQdcr1213cYtDOYaF1Dnq3SJ4q59lDpTeiwrRWbuPhzzANpAuynYDCfQyfbb/3UP5CN1E9sNOJI2MEgrNSLI6hhBWXnr8ObUdoO2lrq5/+S1Uk2aJIb2si397qSZRfePy4e6tnp1M2iHA1nxugY7VVZcp3rnnIjbFTfFR6ksxUqd9aO/LPs8to0PxNdtkP77ZQM5ZotXPCAZp0DsPDpOT2FKsdg2QTuOT/w962nAjs/jkvQIHVFV4GMpULshR5pWsLpYjjNMhyhloRs5dlshtHW85astTWIQMKja/lmP2lZ+vDRoDzcQ+eiKsuv5YRaMlZEaGOLrPtLvm/b0O8HUZgoJmAK50k2xA89KhwjQgn44IGmDjQZ31c00EepE2xXbRgORK7YPQv5Ir7OdxwFtoN0WaBvsmnXaWTetXJwemeP8eAxI7RemSWJoW0dyJE57pJ1PXKd23tx5K0sd2TtfVNwNSwZmkIQzhQy6cUdsaZZwQNLGIiyNoutUCk0zkuLxkomaHtHfiapUKvzBqLyJfCLVx4DZKKet+dvnvVxyq3dWqjnO+HE2/B46qyxAhmmSX3xZqZmnrXm8coDD5bQFiOsWl9xlC0rezVnnA7RHltvO0rA603/9cMBBv7p+IBVi4xZhbMP1eEAyhLTOp3GOGPgqG2jjStviSrOEPhG2NZo9srPngLvgp6XqSxU2sKTpeJo7HX5m/KriX9oIBySzoK12szSJctx//PLgyzXm2MJzxO2sqYnKp5vTA9qNYb23OPAi1HAd9OsbK+746UU/DmFxEJj/ecXAPPkw1kqDKEUSDkiaM9c2jXUoly19xfED2kB7iChikfC9/k1tAMyap63BKQ/14MUY3axxCiRsX6VO5MbsZq0HbUuTmHOznLbO9VbnwHzirHna3b39fvaDcrAa/NT+QLt+fMPYKCYCrZ6c4hdh1K5//bPBGUA2i8c6xvA8WjdAx4OMKkNjGxpDqNfxAm2gDbRb1MAr6/v8NK7wjcistw/tRs165LWb2gYpbXZBPWhrf0uTCNwhtAV0wV9gDt+IfGh52b+uLvBo1oP203kM2sMNROpNO3vstzrp1Xp7Ay9cpvY2nrV9o6XaWzlrtbdifdWigTcStdT3sF2zxi3i8wvQOpf2td80JnHKrJLXU70Ul6DdaCDy794ru28y3sK1cvK21EAkOe0WQZS3oOa9Pvq7E/r7E7rhdCPqBo7/zof9nYnwJo2vSyANByQNkFrG++q7ueoQ2rafcuh/sXDgpRzVSRC/6NWS+6/OShXY2tegrX2G+wgW2t/qVG/fkebGrZ4pLeWw1SH/0Usl355Z7Sq4q2O2jrfe9WUNSNq8buknnF0SnkNxqNf2tl1/S0ZxDY/L8zrQBtjJiDXPNxJ1G1nahHZqvZ2ANtAG2mgADSSkAaCdULBwKa27FNqQNkxdA0AbaOOy0AAaSEgDQDuhYKXuEKg/LhcNtK4BoA20cVloAA0kpAGgnVCwcCmtuxTakDZMXQNAG2jjstAAGkhIA0A7oWCl7hCoPy4XDbSuAaANtHFZaAANJKQBoJ1QsHAprbsU2pA2TF0DQBto47LQABpISANAO6Fgpe4QqD8uFw20rgGgDbRxWWgADSSkAaCdULBwKa27FNqQNkxdA0AbaOOy0AAaSEgDQDuhYKXuEKg/LhcNtK4BoA20cVloAA0kpIEaaO/Zs8dt27aNACYUQJxL686FNqQNU9KAGC1W9/T0uMKGDRvc2rVrgTbQRgNoAA3kVANitFjd2dnpCvoPv7LeKfU61BWXhAbQwGTSQE16BGgj/skkfq4VvaeoAYN2f3+/K/T29uK0c/pIlKK4qDNQRAOjrwFBW6wG2sCatBgaQAMJaGAItHft2kXgEggcDmb0HQxtSpumoAExuuq0i8Wi2717t1NuO4XKU0duMjSABiaTBsRmMVqs1nUXSqWS6+7udjt27PBzACdTY3Ct3PxoAA3kWQOaly02i9FitepaqFQqbt++fW7nzp1u06ZNbvny5W7hwoVuwYIFrqOjo+bz2muvOT60ARpAA2hg9DQQc1bsFYPFYjFZbBajxeqDBw+6gshtKZKtW7e6devWudWrV7tVq1a5lStX8qEN0AAaQANt1IDYKwaLxWJymBo5fPiwKxw6dMgTXHkTvSbZ1dXltm/f7nfWAfps2bKFD22ABtAAGhhDDRhvtRSDxWIxWWyWyxarBe3/B08fsaUWD82sAAAAAElFTkSuQmCC;" vertex="1" parent="1">
          <mxGeometry x="858" y="551" width="199.81" height="106.2" as="geometry" />
        </mxCell>
        <mxCell id="ItB4P-0cPvp-1sTLBnrw-20" value="" style="shape=image;html=1;verticalAlign=top;verticalLabelPosition=bottom;labelBackgroundColor=#ffffff;imageAspect=0;aspect=fixed;image=https://cdn2.iconfinder.com/data/icons/font-awesome/1792/hand-pointer-o-128.png;rounded=0;sketch=0;strokeColor=#788AA3;fillColor=#4481DB;fontColor=#000000;align=center;rotation=-50;imageBackground=#CFDFF7;" vertex="1" parent="1">
          <mxGeometry x="817.64" y="611.98" width="25" height="25" as="geometry" />
        </mxCell>
      </root>
    </mxGraphModel>
  </diagram>
</mxfile>
